<svg width="252" height="55" viewBox="0 0 252 55" fill="none" xmlns="http://www.w3.org/2000/svg">
<g clip-path="url(#clip0_1_41)">
<path d="M20.1274 47C31.2434 47 40.2548 38.0457 40.2548 27C40.2548 15.9543 31.2434 7 20.1274 7C9.01133 7 0 15.9543 0 27C0 38.0457 9.01133 47 20.1274 47Z" fill="white"/>
<path d="M66.0625 21.5511C65.911 20.2064 65.286 19.1648 64.1875 18.4261C63.089 17.678 61.7064 17.304 60.0398 17.304C58.8466 17.304 57.8144 17.4934 56.9432 17.8722C56.072 18.2415 55.3949 18.7528 54.9119 19.4062C54.4384 20.0502 54.2017 20.7841 54.2017 21.608C54.2017 22.2992 54.3627 22.8958 54.6847 23.3977C55.0161 23.8996 55.447 24.321 55.9773 24.6619C56.517 24.9934 57.0947 25.2727 57.7102 25.5C58.3258 25.7178 58.9176 25.8977 59.4858 26.0398L62.3267 26.7784C63.2547 27.0057 64.2064 27.3134 65.1818 27.7017C66.1572 28.09 67.0616 28.6013 67.8949 29.2358C68.7282 29.8703 69.4006 30.6562 69.9119 31.5938C70.4328 32.5312 70.6932 33.6534 70.6932 34.9602C70.6932 36.608 70.267 38.071 69.4148 39.3494C68.572 40.6278 67.3456 41.6364 65.7358 42.375C64.1354 43.1136 62.1989 43.483 59.9261 43.483C57.7481 43.483 55.8636 43.1373 54.2727 42.446C52.6818 41.7547 51.4366 40.7746 50.5369 39.5057C49.6373 38.2273 49.1402 36.7121 49.0455 34.9602H53.4489C53.5341 36.0114 53.875 36.8873 54.4716 37.5881C55.0777 38.2794 55.8494 38.7955 56.7869 39.1364C57.7339 39.4678 58.7708 39.6335 59.8977 39.6335C61.1383 39.6335 62.2415 39.4394 63.2074 39.0511C64.1828 38.6534 64.9498 38.1042 65.5085 37.4034C66.0672 36.6932 66.3466 35.8646 66.3466 34.9176C66.3466 34.0559 66.1004 33.3504 65.608 32.8011C65.125 32.2519 64.4669 31.7973 63.6335 31.4375C62.8097 31.0777 61.8769 30.7604 60.8352 30.4858L57.3977 29.5483C55.0682 28.9138 53.2216 27.9811 51.858 26.75C50.5038 25.5189 49.8267 23.8902 49.8267 21.8636C49.8267 20.1875 50.2813 18.7244 51.1903 17.4744C52.0994 16.2244 53.3305 15.2538 54.8835 14.5625C56.4366 13.8617 58.1884 13.5114 60.1392 13.5114C62.1089 13.5114 63.8466 13.857 65.3523 14.5483C66.8674 15.2396 68.0606 16.1913 68.9318 17.4034C69.803 18.6061 70.2576 19.9886 70.2955 21.5511H66.0625ZM80.3274 13.9091V43H75.9382V13.9091H80.3274ZM86.7195 43V13.9091H91.1087V27.8011H91.4638L103.665 13.9091H109.191L97.4581 27.0057L109.234 43H103.95L94.5462 30.0028L91.1087 33.9517V43H86.7195ZM115.739 43H111.08L121.549 13.9091H126.62L137.089 43H132.43L124.205 19.1932H123.978L115.739 43ZM116.521 31.608H131.634V35.3011H116.521V31.608ZM141.29 13.9091H146.616L155.878 36.5227H156.219L165.48 13.9091H170.807V43H166.631V21.9489H166.361L157.781 42.9574H154.315L145.736 21.9347H145.466V43H141.29V13.9091ZM177.188 43V13.9091H187.558C189.821 13.9091 191.696 14.321 193.183 15.1449C194.669 15.9687 195.782 17.0956 196.521 18.5256C197.259 19.946 197.629 21.5464 197.629 23.3267C197.629 25.1165 197.254 26.7263 196.506 28.1562C195.768 29.5767 194.65 30.7036 193.154 31.5369C191.667 32.3608 189.797 32.7727 187.543 32.7727H180.413V29.0511H187.146C188.576 29.0511 189.736 28.8049 190.626 28.3125C191.516 27.8106 192.169 27.1288 192.586 26.267C193.003 25.4053 193.211 24.4252 193.211 23.3267C193.211 22.2282 193.003 21.2528 192.586 20.4006C192.169 19.5483 191.511 18.8807 190.612 18.3977C189.721 17.9148 188.547 17.6733 187.089 17.6733H181.577V43H177.188ZM202.774 43V13.9091H221.013V17.6875H207.163V26.5511H220.061V30.3153H207.163V39.2216H221.183V43H202.774ZM226.876 43V13.9091H231.265V27.8011H231.62L243.822 13.9091H249.347L237.614 27.0057L249.39 43H244.106L234.702 30.0028L231.265 33.9517V43H226.876Z" fill="#1041E3"/>
<rect x="8" y="15" width="24" height="24" rx="3" fill="#1041E3"/>
<path d="M22.2376 23.6378C22.1808 23.0649 21.937 22.6198 21.5061 22.3026C21.0752 21.9853 20.4905 21.8267 19.7518 21.8267C19.2499 21.8267 18.8262 21.8977 18.4805 22.0398C18.1349 22.1771 17.8697 22.3688 17.6851 22.6151C17.5051 22.8613 17.4152 23.1406 17.4152 23.4531C17.4057 23.7135 17.4602 23.9408 17.5785 24.1349C17.7016 24.3291 17.8697 24.4972 18.0828 24.6392C18.2959 24.7765 18.5421 24.8973 18.8214 25.0014C19.1008 25.1009 19.3991 25.1861 19.7163 25.2571L21.0231 25.5696C21.6576 25.7116 22.24 25.901 22.7703 26.1378C23.3006 26.3745 23.7599 26.6657 24.1481 27.0114C24.5364 27.357 24.8371 27.7642 25.0501 28.233C25.2679 28.7017 25.3792 29.2391 25.3839 29.8452C25.3792 30.7353 25.1519 31.5071 24.7021 32.1605C24.257 32.8092 23.6131 33.3134 22.7703 33.6733C21.9322 34.0284 20.9213 34.206 19.7376 34.206C18.5634 34.206 17.5407 34.026 16.6694 33.6662C15.803 33.3063 15.1259 32.7737 14.6382 32.0682C14.1552 31.358 13.9019 30.4796 13.8782 29.4332H16.8541C16.8872 29.9209 17.0269 30.3281 17.2731 30.6548C17.5241 30.9768 17.8579 31.2206 18.2746 31.3864C18.696 31.5473 19.1718 31.6278 19.7021 31.6278C20.2229 31.6278 20.6751 31.5521 21.0586 31.4006C21.4469 31.2491 21.7476 31.0384 21.9606 30.7685C22.1737 30.4986 22.2802 30.1884 22.2802 29.8381C22.2802 29.5114 22.1832 29.2367 21.989 29.0142C21.7997 28.7917 21.5203 28.6023 21.151 28.446C20.7864 28.2898 20.3389 28.1477 19.8086 28.0199L18.2248 27.6222C16.9985 27.3239 16.0302 26.8575 15.32 26.223C14.6098 25.5885 14.257 24.7339 14.2618 23.6591C14.257 22.7784 14.4914 22.009 14.9649 21.3509C15.4431 20.6927 16.0989 20.179 16.9322 19.8097C17.7656 19.4403 18.7125 19.2557 19.7731 19.2557C20.8527 19.2557 21.7949 19.4403 22.5998 19.8097C23.4095 20.179 24.0392 20.6927 24.489 21.3509C24.9389 22.009 25.1709 22.7713 25.1851 23.6378H22.2376Z" fill="white"/>
</g>
<defs>
<clipPath id="clip0_1_41">
<rect width="252" height="55" fill="white"/>
</clipPath>
</defs>
</svg>
