<svg width="41" height="40" viewBox="0 0 41 40" fill="none" xmlns="http://www.w3.org/2000/svg">
<g clip-path="url(#clip0_1_26)">
<path d="M20.1274 40C31.2434 40 40.2548 31.0457 40.2548 20C40.2548 8.9543 31.2434 0 20.1274 0C9.01133 0 0 8.9543 0 20C0 31.0457 9.01133 40 20.1274 40Z" fill="white"/>
<rect x="8" y="8" width="24" height="24" rx="3" fill="#1041E3"/>
<path d="M22.2376 16.6378C22.1808 16.0649 21.937 15.6198 21.5061 15.3026C21.0752 14.9853 20.4905 14.8267 19.7518 14.8267C19.2499 14.8267 18.8262 14.8977 18.4805 15.0398C18.1349 15.1771 17.8697 15.3688 17.6851 15.6151C17.5051 15.8613 17.4152 16.1406 17.4152 16.4531C17.4057 16.7135 17.4602 16.9408 17.5785 17.1349C17.7016 17.3291 17.8697 17.4972 18.0828 17.6392C18.2959 17.7765 18.5421 17.8973 18.8214 18.0014C19.1008 18.1009 19.3991 18.1861 19.7163 18.2571L21.0231 18.5696C21.6576 18.7116 22.24 18.901 22.7703 19.1378C23.3006 19.3745 23.7599 19.6657 24.1481 20.0114C24.5364 20.357 24.8371 20.7642 25.0501 21.233C25.2679 21.7017 25.3792 22.2391 25.3839 22.8452C25.3792 23.7353 25.1519 24.5071 24.7021 25.1605C24.257 25.8092 23.6131 26.3134 22.7703 26.6733C21.9322 27.0284 20.9213 27.206 19.7376 27.206C18.5634 27.206 17.5407 27.026 16.6694 26.6662C15.803 26.3063 15.1259 25.7737 14.6382 25.0682C14.1552 24.358 13.9019 23.4796 13.8782 22.4332H16.8541C16.8872 22.9209 17.0269 23.3281 17.2731 23.6548C17.5241 23.9768 17.8579 24.2206 18.2746 24.3864C18.696 24.5473 19.1718 24.6278 19.7021 24.6278C20.2229 24.6278 20.6751 24.5521 21.0586 24.4006C21.4469 24.2491 21.7476 24.0384 21.9606 23.7685C22.1737 23.4986 22.2802 23.1884 22.2802 22.8381C22.2802 22.5114 22.1832 22.2367 21.989 22.0142C21.7997 21.7917 21.5203 21.6023 21.151 21.446C20.7864 21.2898 20.3389 21.1477 19.8086 21.0199L18.2248 20.6222C16.9985 20.3239 16.0302 19.8575 15.32 19.223C14.6098 18.5885 14.257 17.7339 14.2618 16.6591C14.257 15.7784 14.4914 15.009 14.9649 14.3509C15.4431 13.6927 16.0989 13.179 16.9322 12.8097C17.7656 12.4403 18.7125 12.2557 19.7731 12.2557C20.8527 12.2557 21.7949 12.4403 22.5998 12.8097C23.4095 13.179 24.0392 13.6927 24.489 14.3509C24.9389 15.009 25.1709 15.7713 25.1851 16.6378H22.2376Z" fill="white"/>
</g>
<defs>
<clipPath id="clip0_1_26">
<rect width="41" height="40" fill="white"/>
</clipPath>
</defs>
</svg>
